:SAMPLES-PER-SECOND 30
:FULLY-SPECIFIED
:DEGREES
368
root  28.7018 36.9063 0.53288 171.305 84.868 -175.555
RightUpLeg  -21.2525 -13.7234 -1.03063
RightLeg  50.7261 0.880258 0.854753
RightFoot  -0.959392 -0.270668 2.91389
RightToes  2.32829e-010 0 -3.6325e-017
Spine  37.2437 -3.77835 6.87732
Spine1  10.3666 -0.346482 -4.60594
HEad  54.4807 -21.4038 -126.521
LeftShoulder1  1.247 -0.446778 -25.3694
LeftArm  2.66672 -23.5301 -38.8218
LeftForeArm  -1.87089 -50.0904 -13.5892
LeftHand  -0.0509974 0.906887 1.20454
RightShoulder  0.265873 -2.52699 21.5855
RightArm  -5.38999 9.78667 43.7425
RightForeArm  -6.73421 60.0891 20.6948
RightHand  -0.600861 8.42804 -5.41798
LeftUpLeg  -10.3702 5.12319 0.868036
LeftLeg  38.2135 -3.77746 -2.79554
LeftFoot  -12.4796 0.14039 6.49054
LeftToes  -3.54706e-010 1.16038e-010 5.28031e-012
369
root  29.9079 37.0245 0.364441 -178.188 83.8096 -165.874
RightUpLeg  -21.3144 -15.0773 0.767167
RightLeg  33.4411 -0.894856 -1.05
RightFoot  -0.727452 -0.331744 3.4941
RightToes  2.32829e-010 0 -3.6325e-017
Spine  38.5069 -5.0098 8.53209
Spine1  10.3891 -1.00119 -3.86597
HEad  55.555 -22.3292 -128.502
LeftShoulder1  1.39786 -0.951797 -25.177
LeftArm  3.45116 -27.787 -40.5889
LeftForeArm  -3.53558 -45.8425 -11.7699
LeftHand  -0.0683619 0.897988 1.6734
RightShoulder  0.335849 -2.22639 20.3266
RightArm  -5.63712 14.7767 44.2156
RightForeArm  -10.2631 55.6382 17.4778
RightHand  -0.579986 8.36491 -5.28232
LeftUpLeg  -9.41132 4.54721 1.84463
LeftLeg  38.6 -4.01846 -3.04332
LeftFoot  -14.4383 0.266823 6.68268
LeftToes  -3.54706e-010 1.16038e-010 5.28031e-012
370
root  31.1982 36.8748 0.435023 175.075 83.1011 -174.344
RightUpLeg  -21.1619 -13.1028 0.242628
RightLeg  16.5247 -2.85545 -0.746203
RightFoot  -1.26515 -0.50049 5.65519
RightToes  2.32829e-010 0 -3.6325e-017
Spine  38.695 -4.69358 7.44159
Spine1  10.5118 -1.32086 -2.39576
HEad  57.8939 -22.9231 -130.981
LeftShoulder1  1.61014 -1.74494 -24.4814
LeftArm  3.84389 -31.4514 -41.9299
LeftForeArm  -5.11124 -42.3418 -10.5196
LeftHand  -0.0784688 1.35277 2.05081
RightShoulder  0.366867 -2.0816 19.7169
RightArm  -5.78193 19.6671 43.9205
RightForeArm  -12.2456 51.3921 15.0171
RightHand  -0.446854 9.2396 -3.93043
LeftUpLeg  -9.73478 4.22595 1.25821
LeftLeg  40.0082 -4.1328 -3.31931
LeftFoot  -16.9311 0.421333 6.52805
LeftToes  -3.54706e-010 1.16038e-010 5.28031e-012
371
root  32.519 36.4591 0.759439 159.515 83.6586 167.865
RightUpLeg  -22.6055 -4.70539 -2.55326
RightLeg  6.59899 -8.0655 -0.943682
RightFoot  -3.57926 -0.514718 7.10827
RightToes  2.32829e-010 0 -3.6325e-017
Spine  38.1213 -2.49483 4.48166
Spine1  11.1479 -0.547345 -0.373364
HEad  59.3604 -23.9691 -131.445
LeftShoulder1  1.87787 -2.87628 -23.1619
LeftArm  4.67414 -35.2266 -43.2066
LeftForeArm  -7.58811 -38.8288 -9.46086
LeftHand  -0.110777 0.947216 2.80781
RightShoulder  0.360981 -2.08078 19.28
RightArm  -5.88538 24.0749 43.5641
RightForeArm  -15.7056 47.1668 13.1274
RightHand  -0.642792 8.95768 -5.56852
LeftUpLeg  -10.919 6.51136 0.366865
LeftLeg  42.7085 -4.81138 -4.3399
LeftFoot  -19.7933 0.619695 6.74753
LeftToes  -3.54706e-010 1.16038e-010 5.28031e-012
372
root  33.8524 36.008 0.929078 150.385 83.5535 158.107
RightUpLeg  -23.6645 -2.66102 -2.83472
RightLeg  4.90612 -6.6543 -2.14279
RightFoot  -2.32688 -0.427784 5.40801
RightToes  2.32829e-010 0 -3.6325e-017
Spine  38.6673 -1.55977 3.69262
Spine1  11.8542 -0.191277 0.885581
HEad  60.4053 -24.577 -132.013
LeftShoulder1  2.09803 -3.85229 -22.1957
LeftArm  5.07591 -38.4618 -44.7581
LeftForeArm  -9.05221 -35.6247 -8.5464
LeftHand  -0.0894212 1.40422 2.40474
RightShoulder  0.433574 -1.73316 18.2165
RightArm  -6.18868 27.7769 43.2291
RightForeArm  -18.5643 42.7575 11.471
RightHand  -0.711353 10.2281 -5.68313
LeftUpLeg  -11.2713 8.20577 0.249216
LeftLeg  46.9606 -4.99411 -5.25287
LeftFoot  -21.6695 0.686018 6.24432
LeftToes  -3.54706e-010 1.16038e-010 5.28031e-012
373
root  35.1162 35.6419 0.71231 160.722 81.8968 170.637
RightUpLeg  -22.4518 -5.54533 -2.55797
RightLeg  9.34509 -4.52398 -0.931319
RightFoot  4.27376 -0.345561 2.67606
RightToes  2.32829e-010 0 -3.6325e-017
Spine  42.0665 -4.62402 8.26638
Spine1  12.3488 -1.21054 -0.674254
HEad  62.0348 -25.4015 -132.736
LeftShoulder1  2.25098 -4.5534 -21.5787
LeftArm  5.51342 -41.9891 -45.6294
LeftForeArm  -9.78575 -32.858 -7.8057
LeftHand  -0.0667767 1.95879 1.93971
RightShoulder  0.49073 -1.42317 17.131
RightArm  -6.00438 32.0311 42.6152
RightForeArm  -21.9358 37.426 9.76394
RightHand  -0.679025 11.329 -5.11539
LeftUpLeg  -11.1552 6.68884 1.53103
LeftLeg  54.5976 -4.19838 -5.90589
LeftFoot  -19.7657 0.310312 2.23492
LeftToes  -3.54706e-010 1.16038e-010 5.28031e-012
374
root  36.0906 35.0381 0.583659 170.045 80.0439 -176.948
RightUpLeg  -22.7716 -11.2546 -1.48416
RightLeg  17.1805 -1.43737 0.385669
RightFoot  11.9023 -0.185034 1.26288
RightToes  2.32829e-010 0 -3.6325e-017
Spine  48.0859 -8.5515 12.8868
Spine1  10.5706 -2.17813 -2.41349
HEad  63.892 -25.2006 -134.283
LeftShoulder1  2.31131 -5.15885 -20.2788
LeftArm  5.92183 -46.0337 -46.328
LeftForeArm  -10.9478 -29.7808 -7.04468
LeftHand  -0.0797946 1.80333 2.34045
RightShoulder  0.547891 -1.12139 16.4768
RightArm  -6.14789 36.6133 42.1384
RightForeArm  -24.3779 32.4956 8.40149
RightHand  -0.655081 12.0592 -4.77159
LeftUpLeg  -14.4552 6.19948 3.9094
LeftLeg  66.8747 -3.05394 -6.99795
LeftFoot  -10.1395 0.0939315 -1.76093
LeftToes  -3.54706e-010 1.16038e-010 5.28031e-012
375
root  36.9451 34.3055 0.614543 173.545 79.5583 -170.113
RightUpLeg  -24.3186 -16.7246 0.388183
RightLeg  28.1357 3.87029 1.81433
RightFoot  10.4939 0.607645 -2.81604
RightToes  2.32829e-010 0 -3.6325e-017
Spine  55.1554 -10.9537 14.7805
Spine1  8.33205 -2.63265 -2.34194
HEad  65.4092 -27.9289 -134.276
LeftShoulder1  2.4043 -6.19681 -18.1956
LeftArm  3.41448 -49.0013 -45.8433
LeftForeArm  -11.4373 -27.8849 -6.5991
LeftHand  -0.0612815 2.77152 2.06592
RightShoulder  0.699277 -0.237828 14.7332
RightArm  -7.10755 41.5649 41.4674
RightForeArm  -26.7226 27.5288 7.20596
RightHand  -0.579344 12.6188 -4.15469
LeftUpLeg  -18.7011 7.13562 6.05993
LeftLeg  77.6531 -1.21858 -4.9548
LeftFoot  2.38595 0.163242 -1.81491
LeftToes  -3.54706e-010 1.16038e-010 5.28031e-012
376
root  37.6374 33.5956 0.797894 170.962 79.0497 -171.104
RightUpLeg  -26.3915 -18.278 -0.0156576
RightLeg  36.9203 4.06115 2.99548
RightFoot  7.48418 1.04814 -5.98507
RightToes  2.32829e-010 0 -3.6325e-017
Spine  60.4193 -11.0675 13.6258
Spine1  7.51226 -3.61889 1.18868
HEad  68.0508 -30.5299 -137.042
LeftShoulder1  2.37 -6.54091 -16.9055
LeftArm  -0.778317 -52.9517 -44.2191
LeftForeArm  -11.2541 -25.3041 -5.98697
LeftHand  -0.0432748 2.55255 1.08169
RightShoulder  0.856567 1.01944 11.8959
RightArm  -8.06179 47.8355 40.8204
RightForeArm  -29.5854 22.0471 5.89767
RightHand  -0.591849 13.232 -4.1158
LeftUpLeg  -23.9241 7.56121 5.92986
LeftLeg  83.8973 -0.360612 -2.00564
LeftFoot  5.33333 -0.377218 2.46494
LeftToes  -3.54706e-010 1.16038e-010 5.28031e-012
377
root  38.394 33.3919 0.825491 168.201 76.9115 -172.04
RightUpLeg  -25.1238 -22.3317 -1.54972
RightLeg  41.5731 4.95476 4.37369
RightFoot  4.2726 1.03495 -7.31557
RightToes  2.32829e-010 0 -3.6325e-017
Spine  65.0618 -13.2185 13.7745
Spine1  7.3919 -5.24017 2.23956
HEad  70.7826 -33.5069 -139.062
LeftShoulder1  2.28603 -7.08148 -14.7864
LeftArm  -5.92842 -57.0023 -42.4283
LeftForeArm  -12.4496 -22.1797 -5.4469
LeftHand  -0.0910877 1.6446 2.62289
RightShoulder  0.914284 2.01308 9.20557
RightArm  -10.5446 53.1773 39.2564
RightForeArm  -32.0178 17.7473 4.47443
RightHand  -0.582928 13.8441 -3.94462
LeftUpLeg  -27.3137 5.25611 4.9902
LeftLeg  83.7079 -0.514146 -3.21678
LeftFoot  3.28021 -0.303597 2.20517
LeftToes  -3.54706e-010 1.16038e-010 5.28031e-012
378
root  39.1964 33.4813 0.853058 166.213 75.8233 -172.566
RightUpLeg  -22.6951 -24.1562 -2.94484
RightLeg  43.6335 5.14667 4.91235
RightFoot  1.91862 0.975684 -8.24024
RightToes  2.32829e-010 0 -3.6325e-017
Spine  70.4058 -15.4329 14.3485
Spine1  5.65291 -5.78573 1.53626
HEad  73.7071 -35.3896 -140.691
LeftShoulder1  2.27132 -8.64562 -11.5345
LeftArm  -13.5081 -59.6554 -40.2814
LeftForeArm  -10.6866 -19.6107 -4.91233
LeftHand  -0.0697714 2.44693 2.26719
RightShoulder  0.943697 2.7132 7.6463
RightArm  -15.0696 56.5511 35.2427
RightForeArm  -33.2054 15.3033 3.36376
RightHand  -0.398662 13.7051 -2.86568
LeftUpLeg  -28.5609 3.59552 4.41463
LeftLeg  77.7213 -1.24865 -5.29925
LeftFoot  0.148748 -0.00663311 -0.0770476
LeftToes  -3.54706e-010 1.16038e-010 5.28031e-012
379
root  39.9452 33.5697 0.934622 164.901 75.6038 -174.259
RightUpLeg  -22.4426 -24.3719 -3.41063
RightLeg  45.2176 4.93995 4.98099
RightFoot  -0.114468 0.807344 -8.19634
RightToes  2.32829e-010 0 -3.6325e-017
Spine  74.6499 -16.3677 14.3019
Spine1  4.30358 -5.72972 1.13914
HEad  76.7244 -36.1924 -142.222
LeftShoulder1  2.20001 -9.70633 -9.25477
LeftArm  -19.9247 -62.5405 -36.0469
LeftForeArm  -11.2813 -17.5903 -4.16434
LeftHand  -0.0899154 1.89467 2.69713
RightShoulder  0.893343 3.12729 5.73679
RightArm  -19.8664 59.7283 30.2086
RightForeArm  -35.7631 12.8356 2.29547
RightHand  -0.375071 14.2322 -2.6614
LeftUpLeg  -29.9978 2.67067 3.86485
LeftLeg  68.3343 -2.93062 -7.31905
LeftFoot  -2.63478 0.315575 -3.81908
LeftToes  -3.54706e-010 1.16038e-010 5.28031e-012
380
root  40.5768 33.5479 0.98298 165.397 76.1894 -175.057
RightUpLeg  -23.8605 -24.351 -2.84517
RightLeg  47.0244 4.93637 5.3126
RightFoot  -1.62239 0.725062 -8.65346
RightToes  2.32829e-010 0 -3.6325e-017
Spine  78.0261 -16.4818 14.1027
Spine1  2.94837 -5.35201 1.18092
HEad  80.2761 -37.0933 -144.547
LeftShoulder1  2.15648 -10.4618 -7.91637
LeftArm  -26.1392 -65.5928 -27.7672
LeftForeArm  -14.95 -15.5983 -3.58867
LeftHand  -0.0666849 2.90207 2.45272
RightShoulder  0.792365 3.61022 3.07051
RightArm  -25.5392 62.3892 24.5363
RightForeArm  -37.5493 10.2153 1.26864
RightHand  -0.319949 13.9221 -2.36681
LeftUpLeg  -31.0926 2.29664 3.7462
LeftLeg  57.564 -4.96786 -7.95984
LeftFoot  -3.07428 0.312198 -4.06402
LeftToes  -3.54706e-010 1.16038e-010 5.28031e-012
381
root  41.2453 33.4293 0.934262 167.97 76.8061 -174.538
RightUpLeg  -26.4449 -25.2304 -1.73922
RightLeg  49.3745 5.20133 6.10505
RightFoot  -3.10035 0.681656 -9.70108
RightToes  2.32829e-010 0 -3.6325e-017
Spine  80.3655 -16.6961 14.2703
Spine1  1.58544 -4.9499 1.08765
HEad  82.8035 -39.2002 -147.273
LeftShoulder1  1.95474 -11.0192 -5.67673
LeftArm  -33.1544 -66.2352 -22.2093
LeftForeArm  -15.8674 -15.2972 -2.46912
LeftHand  -0.0762685 2.5992 2.65063
RightShoulder  0.643383 4.03314 0.123851
RightArm  -32.1284 64.7908 17.4104
RightForeArm  -39.1221 6.86411 0.471619
RightHand  -0.18981 13.9084 -1.58868
LeftUpLeg  -32.0442 1.62227 4.05161
LeftLeg  47.308 -5.95422 -6.47182
LeftFoot  -2.56889 0.360096 -4.3977
LeftToes  -3.54706e-010 1.16038e-010 5.28031e-012
382
root  41.8832 33.1915 0.7893 173.501 76.7726 -171.367
RightUpLeg  -29.616 -26.3804 -0.152357
RightLeg  51.9641 5.20455 6.70734
RightFoot  -5.21498 0.444479 -8.86464
RightToes  2.32829e-010 0 -3.6325e-017
Spine  81.0024 -17.7498 15.1782
Spine1  1.48404 -4.87345 0.306882
HEad  84.6667 -40.7388 -148.583
LeftShoulder1  1.71906 -11.175 -3.70313
LeftArm  -40.2678 -67.2792 -14.6023
LeftForeArm  -18.7514 -14.017 -1.24073
LeftHand  -0.0656867 3.06965 2.52021
RightShoulder  0.457331 4.55057 -3.17819
RightArm  -39.0844 66.1113 9.81699
RightForeArm  -41.5876 4.24779 -0.203943
RightHand  -0.191459 13.3632 -1.62451
LeftUpLeg  -33.325 -0.516528 4.98188
LeftLeg  40.5548 -6.79663 -5.82161
LeftFoot  0.663429 0.426802 -4.50898
LeftToes  -3.54706e-010 1.16038e-010 5.28031e-012
